<?xml version="1.0" encoding="UTF-8"?>
<svg xmlns="http://www.w3.org/2000/svg" xmlns:xlink="http://www.w3.org/1999/xlink" width="36px" height="42px" viewBox="0 0 36 28" version="1.1">
<g id="surface1">
<path style=" stroke:none;fill-rule:evenodd;fill:rgb(47.45098%,32.156863%,70.196078%);fill-opacity:1;" d="M 7.476562 0.00390625 C 5.421875 0.00390625 3.902344 1.757812 3.972656 3.660156 C 4.035156 5.488281 3.953125 7.859375 3.339844 9.789062 C 2.726562 11.726562 1.691406 12.953125 0 13.109375 L 0 14.890625 C 1.691406 15.046875 2.726562 16.273438 3.339844 18.210938 C 3.953125 20.140625 4.035156 22.511719 3.972656 24.339844 C 3.902344 26.242188 5.421875 27.996094 7.476562 27.996094 L 28.527344 27.996094 C 30.578125 27.996094 32.097656 26.242188 32.03125 24.339844 C 31.964844 22.511719 32.050781 20.140625 32.660156 18.210938 C 33.273438 16.273438 34.308594 15.046875 36 14.890625 L 36 13.109375 C 34.308594 12.953125 33.273438 11.726562 32.660156 9.789062 C 32.050781 7.859375 31.964844 5.488281 32.03125 3.660156 C 32.097656 1.757812 30.578125 0.00390625 28.527344 0.00390625 Z M 24.40625 17.234375 C 24.40625 19.855469 22.402344 21.445312 19.082031 21.445312 L 13.421875 21.445312 C 13.085938 21.445312 12.8125 21.179688 12.8125 20.847656 L 12.8125 7.152344 C 12.8125 6.820312 13.085938 6.554688 13.421875 6.554688 L 19.046875 6.554688 C 21.820312 6.554688 23.636719 8.019531 23.636719 10.269531 C 23.636719 11.847656 22.414062 13.261719 20.855469 13.511719 L 20.855469 13.59375 C 22.976562 13.820312 24.40625 15.253906 24.40625 17.234375 Z M 18.464844 8.441406 L 15.238281 8.441406 L 15.238281 12.890625 L 17.957031 12.890625 C 20.054688 12.890625 21.214844 12.066406 21.214844 10.589844 C 21.214844 9.207031 20.21875 8.441406 18.464844 8.441406 Z M 15.238281 14.65625 L 15.238281 19.554688 L 18.582031 19.554688 C 20.769531 19.554688 21.925781 18.699219 21.925781 17.089844 C 21.925781 15.480469 20.738281 14.65625 18.441406 14.65625 Z M 15.238281 14.65625 "/>
</g>
</svg>
