<?xml version="1.0" encoding="UTF-8"?>
<svg xmlns="http://www.w3.org/2000/svg" xmlns:xlink="http://www.w3.org/1999/xlink" width="36px" height="42px" viewBox="0 0 36 41" version="1.1">
<g id="surface1">
<path style=" stroke:none;fill-rule:nonzero;fill:rgb(10.588235%,45.098039%,72.941176%);fill-opacity:1;" d="M 3.015625 36.703125 L 0 0.0703125 L 36 0.140625 L 32.8125 36.703125 L 18.136719 40.929688 Z M 3.015625 36.703125 "/>
<path style=" stroke:none;fill-rule:nonzero;fill:rgb(10.980392%,53.333333%,78.039216%);fill-opacity:1;" d="M 18.136719 37.394531 L 18.136719 3.558594 L 32.960938 3.605469 L 30.316406 33.878906 Z M 18.136719 37.394531 "/>
<path style=" stroke:none;fill-rule:nonzero;fill:rgb(100%,100%,100%);fill-opacity:1;" d="M 29.28125 7.882812 L 6.472656 7.882812 L 7.089844 12.304688 L 17.914062 12.304688 L 7.265625 16.851562 L 7.882812 21.125 L 23.570312 21.125 L 23.003906 27.097656 L 17.691406 28.128906 L 12.875 26.902344 L 12.503906 23.511719 L 8.078125 23.511719 L 8.671875 30.5625 L 18.160156 33.191406 L 27.253906 30.316406 L 28.414062 16.53125 L 18.804688 16.53125 L 29.277344 12.207031 Z M 29.28125 7.882812 "/>
</g>
</svg>
