<?xml version="1.0" encoding="UTF-8"?>
<svg xmlns="http://www.w3.org/2000/svg" xmlns:xlink="http://www.w3.org/1999/xlink" width="36px" height="42px" viewBox="0 0 36 36" version="1.1">
<g id="surface1">
<rect x="0" y="0" width="36" height="36" style="fill:rgb(94.117647%,85.882353%,30.980392%);fill-opacity:1;stroke:none;"/>
<path style=" stroke:none;fill-rule:nonzero;fill:rgb(19.607843%,20%,18.823529%);fill-opacity:1;" d="M 33.054688 27.414062 C 32.789062 25.769531 31.71875 24.390625 28.546875 23.105469 C 27.445312 22.597656 26.214844 22.238281 25.851562 21.402344 C 25.71875 20.914062 25.703125 20.640625 25.785156 20.347656 C 26.019531 19.394531 27.160156 19.09375 28.0625 19.367188 C 28.644531 19.5625 29.195312 20.011719 29.527344 20.726562 C 31.082031 19.722656 31.078125 19.726562 32.164062 19.035156 C 31.765625 18.421875 31.554688 18.136719 31.292969 17.875 C 30.359375 16.828125 29.085938 16.292969 27.050781 16.332031 C 26.699219 16.378906 26.34375 16.425781 25.992188 16.46875 C 24.972656 16.726562 24.003906 17.261719 23.4375 17.976562 C 21.734375 19.910156 22.21875 23.292969 24.292969 24.6875 C 26.335938 26.21875 29.335938 26.570312 29.71875 28.003906 C 30.09375 29.757812 28.429688 30.328125 26.777344 30.125 C 25.558594 29.871094 24.882812 29.25 24.148438 28.125 C 22.800781 28.90625 22.800781 28.90625 21.414062 29.703125 C 21.742188 30.421875 22.089844 30.746094 22.640625 31.371094 C 25.246094 34.015625 31.773438 33.886719 32.945312 29.882812 C 32.992188 29.746094 33.308594 28.828125 33.054688 27.414062 Z M 19.570312 16.546875 L 16.203125 16.546875 C 16.203125 19.453125 16.191406 22.34375 16.191406 25.25 C 16.191406 27.101562 16.285156 28.800781 15.984375 29.320312 C 15.492188 30.34375 14.214844 30.214844 13.632812 30.019531 C 13.042969 29.726562 12.742188 29.3125 12.390625 28.726562 C 12.296875 28.558594 12.222656 28.429688 12.199219 28.421875 C 11.285156 28.976562 10.375 29.539062 9.460938 30.097656 C 9.917969 31.03125 10.585938 31.84375 11.445312 32.371094 C 12.730469 33.140625 14.453125 33.375 16.257812 32.960938 C 17.433594 32.617188 18.445312 31.910156 18.976562 30.832031 C 19.742188 29.417969 19.578125 27.707031 19.570312 25.816406 C 19.585938 22.730469 19.570312 19.644531 19.570312 16.546875 Z M 19.570312 16.546875 "/>
</g>
</svg>
