<?xml version="1.0" encoding="UTF-8"?>
<svg xmlns="http://www.w3.org/2000/svg" xmlns:xlink="http://www.w3.org/1999/xlink" width="36px" height="42px" viewBox="0 0 36 37" version="1.1">
<g id="surface1">
<path style=" stroke:none;fill-rule:nonzero;fill:rgb(100%,17.647059%,12.54902%);fill-opacity:1;" d="M 35.914062 8.441406 C 35.929688 8.492188 35.9375 8.542969 35.9375 8.59375 L 35.9375 16.484375 C 35.9375 16.691406 35.824219 16.882812 35.644531 16.984375 L 28.980469 20.800781 L 28.980469 28.359375 C 28.980469 28.566406 28.871094 28.753906 28.691406 28.859375 L 14.777344 36.820312 C 14.746094 36.839844 14.710938 36.851562 14.675781 36.863281 C 14.664062 36.867188 14.652344 36.875 14.636719 36.878906 C 14.539062 36.902344 14.4375 36.902344 14.339844 36.878906 C 14.324219 36.875 14.3125 36.863281 14.296875 36.859375 C 14.265625 36.847656 14.230469 36.835938 14.199219 36.820312 L 0.289062 28.859375 C 0.109375 28.757812 0 28.566406 0 28.359375 L 0 4.679688 C 0 4.628906 0.0078125 4.578125 0.0195312 4.527344 C 0.0234375 4.511719 0.0351562 4.496094 0.0390625 4.480469 C 0.0507812 4.449219 0.0625 4.417969 0.078125 4.390625 C 0.0898438 4.371094 0.105469 4.355469 0.117188 4.339844 C 0.132812 4.316406 0.148438 4.292969 0.167969 4.273438 C 0.183594 4.257812 0.207031 4.242188 0.226562 4.230469 C 0.246094 4.210938 0.265625 4.195312 0.289062 4.179688 L 7.246094 0.199219 C 7.425781 0.0976562 7.644531 0.0976562 7.824219 0.199219 L 14.777344 4.179688 L 14.78125 4.179688 C 14.804688 4.195312 14.824219 4.210938 14.84375 4.230469 C 14.863281 4.242188 14.882812 4.257812 14.902344 4.273438 C 14.921875 4.292969 14.9375 4.316406 14.953125 4.339844 C 14.964844 4.355469 14.980469 4.371094 14.992188 4.390625 C 15.007812 4.417969 15.019531 4.449219 15.03125 4.480469 C 15.035156 4.496094 15.046875 4.511719 15.050781 4.527344 C 15.0625 4.578125 15.070312 4.628906 15.070312 4.679688 L 15.070312 19.46875 L 20.867188 16.152344 L 20.867188 8.589844 C 20.867188 8.542969 20.871094 8.488281 20.886719 8.441406 C 20.890625 8.425781 20.902344 8.410156 20.90625 8.394531 C 20.917969 8.363281 20.929688 8.332031 20.945312 8.304688 C 20.953125 8.285156 20.972656 8.269531 20.984375 8.253906 C 21 8.230469 21.015625 8.207031 21.035156 8.1875 C 21.050781 8.167969 21.074219 8.15625 21.089844 8.140625 C 21.113281 8.125 21.132812 8.105469 21.15625 8.09375 L 28.113281 4.113281 C 28.289062 4.007812 28.511719 4.007812 28.691406 4.113281 L 35.644531 8.09375 C 35.671875 8.105469 35.6875 8.125 35.710938 8.140625 C 35.730469 8.15625 35.75 8.167969 35.765625 8.183594 C 35.785156 8.207031 35.800781 8.230469 35.820312 8.253906 C 35.832031 8.269531 35.847656 8.285156 35.859375 8.304688 C 35.875 8.332031 35.882812 8.363281 35.894531 8.394531 C 35.902344 8.410156 35.910156 8.425781 35.914062 8.441406 Z M 34.777344 16.152344 L 34.777344 9.589844 L 32.34375 10.980469 L 28.980469 12.90625 L 28.980469 19.46875 Z M 27.820312 28.027344 L 27.820312 21.457031 L 24.515625 23.335938 L 15.070312 28.695312 L 15.070312 35.324219 Z M 1.160156 5.675781 L 1.160156 28.027344 L 13.910156 35.324219 L 13.910156 28.695312 L 7.25 24.949219 L 7.246094 24.945312 L 7.242188 24.945312 C 7.222656 24.933594 7.203125 24.914062 7.179688 24.898438 C 7.164062 24.882812 7.140625 24.871094 7.125 24.855469 C 7.105469 24.835938 7.09375 24.8125 7.078125 24.792969 C 7.0625 24.773438 7.046875 24.757812 7.035156 24.738281 L 7.03125 24.734375 C 7.019531 24.714844 7.011719 24.6875 7.003906 24.664062 C 6.992188 24.640625 6.980469 24.621094 6.976562 24.597656 C 6.96875 24.570312 6.964844 24.542969 6.964844 24.511719 C 6.960938 24.492188 6.953125 24.46875 6.953125 24.449219 L 6.953125 8.992188 L 3.59375 7.066406 Z M 7.535156 1.363281 L 1.742188 4.679688 L 7.535156 7.996094 L 13.328125 4.679688 Z M 10.550781 22.058594 L 13.910156 20.132812 L 13.910156 5.675781 L 11.476562 7.070312 L 8.113281 8.992188 L 8.113281 23.449219 Z M 28.402344 5.277344 L 22.605469 8.59375 L 28.402344 11.90625 L 34.195312 8.589844 Z M 27.820312 12.90625 L 24.460938 10.980469 L 22.023438 9.589844 L 22.023438 16.152344 L 25.386719 18.078125 L 27.820312 19.46875 Z M 14.488281 27.699219 L 22.988281 22.875 L 27.234375 20.464844 L 21.445312 17.152344 L 14.78125 20.964844 L 8.703125 24.445312 Z M 14.488281 27.699219 "/>
</g>
</svg>
