<?xml version="1.0" encoding="UTF-8"?>
<svg xmlns="http://www.w3.org/2000/svg" xmlns:xlink="http://www.w3.org/1999/xlink" width="36px" height="42px" viewBox="0 0 36 35" version="1.1">
<g id="surface1">
<path style=" stroke:none;fill-rule:nonzero;fill:rgb(0%,32.941176%,41.960784%);fill-opacity:1;" d="M 33.136719 26.972656 C 31.179688 26.925781 29.664062 27.117188 28.390625 27.648438 C 28.023438 27.792969 27.4375 27.792969 27.386719 28.253906 C 27.585938 28.449219 27.609375 28.761719 27.78125 29.027344 C 28.074219 29.511719 28.585938 30.164062 29.050781 30.5 C 29.566406 30.886719 30.078125 31.273438 30.617188 31.613281 C 31.570312 32.191406 32.648438 32.53125 33.578125 33.109375 C 34.117188 33.449219 34.65625 33.882812 35.191406 34.246094 C 35.460938 34.441406 35.632812 34.753906 35.976562 34.875 L 35.976562 34.800781 C 35.804688 34.585938 35.753906 34.269531 35.585938 34.027344 C 35.339844 33.789062 35.09375 33.570312 34.851562 33.328125 C 34.140625 32.386719 33.261719 31.5625 32.304688 30.886719 C 31.523438 30.355469 29.808594 29.632812 29.492188 28.738281 C 29.492188 28.738281 29.46875 28.714844 29.445312 28.6875 C 29.980469 28.640625 30.617188 28.449219 31.132812 28.300781 C 31.964844 28.085938 32.722656 28.132812 33.578125 27.914062 C 33.96875 27.820312 34.359375 27.699219 34.753906 27.578125 L 34.753906 27.359375 C 34.3125 26.925781 33.996094 26.34375 33.53125 25.933594 C 32.28125 24.871094 30.910156 23.832031 29.492188 22.960938 C 28.734375 22.480469 27.753906 22.164062 26.949219 21.753906 C 26.65625 21.609375 26.164062 21.535156 25.992188 21.292969 C 25.554688 20.761719 25.308594 20.0625 24.992188 19.433594 C 24.28125 18.105469 23.597656 16.632812 22.984375 15.230469 C 22.542969 14.289062 22.273438 13.34375 21.738281 12.476562 C 19.21875 8.367188 16.476562 5.878906 12.269531 3.4375 C 11.363281 2.929688 10.285156 2.714844 9.136719 2.449219 C 8.523438 2.421875 7.914062 2.375 7.300781 2.351562 C 6.910156 2.179688 6.519531 1.722656 6.175781 1.503906 C 4.78125 0.636719 1.183594 -1.25 0.15625 1.238281 C -0.503906 2.808594 1.136719 4.355469 1.699219 5.152344 C 2.117188 5.710938 2.652344 6.335938 2.945312 6.964844 C 3.117188 7.375 3.167969 7.8125 3.339844 8.246094 C 3.730469 9.308594 4.097656 10.492188 4.609375 11.484375 C 4.878906 11.992188 5.171875 12.523438 5.515625 12.984375 C 5.710938 13.25 6.054688 13.371094 6.128906 13.804688 C 5.785156 14.289062 5.761719 15.011719 5.566406 15.617188 C 4.683594 18.347656 5.027344 21.730469 6.273438 23.734375 C 6.664062 24.339844 7.59375 25.667969 8.84375 25.160156 C 9.945312 24.726562 9.699219 23.347656 10.015625 22.140625 C 10.089844 21.851562 10.042969 21.65625 10.1875 21.464844 L 10.1875 21.511719 C 10.53125 22.1875 10.875 22.839844 11.191406 23.519531 C 11.949219 24.703125 13.273438 25.933594 14.371094 26.757812 C 14.960938 27.191406 15.425781 27.941406 16.160156 28.207031 L 16.160156 28.132812 L 16.109375 28.132812 C 15.960938 27.914062 15.742188 27.820312 15.546875 27.648438 C 15.105469 27.214844 14.617188 26.683594 14.273438 26.199219 C 13.246094 24.847656 12.34375 23.347656 11.535156 21.800781 C 11.144531 21.054688 10.800781 20.230469 10.484375 19.484375 C 10.335938 19.191406 10.335938 18.757812 10.089844 18.613281 C 9.722656 19.144531 9.1875 19.605469 8.917969 20.257812 C 8.453125 21.292969 8.402344 22.574219 8.230469 23.90625 C 8.132812 23.929688 8.183594 23.90625 8.132812 23.953125 C 7.351562 23.757812 7.082031 22.960938 6.789062 22.285156 C 6.054688 20.570312 5.929688 17.816406 6.566406 15.835938 C 6.738281 15.328125 7.472656 13.730469 7.179688 13.25 C 7.03125 12.789062 6.542969 12.523438 6.273438 12.160156 C 5.957031 11.703125 5.613281 11.121094 5.394531 10.613281 C 4.804688 9.261719 4.511719 7.761719 3.875 6.410156 C 3.582031 5.78125 3.070312 5.128906 2.652344 4.550781 C 2.1875 3.898438 1.675781 3.4375 1.308594 2.664062 C 1.183594 2.398438 1.015625 1.964844 1.210938 1.675781 C 1.257812 1.480469 1.355469 1.410156 1.550781 1.359375 C 1.871094 1.09375 2.777344 1.433594 3.09375 1.578125 C 4 1.941406 4.757812 2.277344 5.515625 2.785156 C 5.859375 3.027344 6.226562 3.488281 6.664062 3.605469 L 7.179688 3.605469 C 7.960938 3.777344 8.84375 3.65625 9.578125 3.875 C 10.875 4.285156 12.046875 4.886719 13.101562 5.539062 C 16.304688 7.546875 18.949219 10.398438 20.734375 13.804688 C 21.027344 14.359375 21.148438 14.867188 21.417969 15.445312 C 21.933594 16.632812 22.570312 17.839844 23.082031 19 C 23.597656 20.136719 24.085938 21.292969 24.820312 22.238281 C 25.1875 22.746094 26.65625 23.011719 27.316406 23.277344 C 27.804688 23.492188 28.5625 23.6875 29.003906 23.953125 C 29.835938 24.460938 30.667969 25.039062 31.449219 25.597656 C 31.839844 25.886719 33.066406 26.488281 33.136719 26.972656 Z M 33.136719 26.972656 "/>
<path style=" stroke:none;fill-rule:nonzero;fill:rgb(0%,32.941176%,41.960784%);fill-opacity:1;" d="M 8.183594 5.976562 C 7.765625 5.976562 7.472656 6.023438 7.179688 6.097656 L 7.179688 6.144531 L 7.226562 6.144531 C 7.425781 6.53125 7.765625 6.796875 8.011719 7.136719 C 8.207031 7.523438 8.378906 7.910156 8.574219 8.296875 C 8.597656 8.269531 8.621094 8.246094 8.621094 8.246094 C 8.964844 8.003906 9.136719 7.617188 9.136719 7.039062 C 8.988281 6.871094 8.964844 6.699219 8.84375 6.53125 C 8.695312 6.289062 8.378906 6.167969 8.183594 5.976562 Z M 8.183594 5.976562 "/>
</g>
</svg>
