<?xml version="1.0" encoding="UTF-8"?>
<svg xmlns="http://www.w3.org/2000/svg" xmlns:xlink="http://www.w3.org/1999/xlink" width="36px" height="42px" viewBox="0 0 36 18" version="1.1">
<g id="surface1">
<path style=" stroke:none;fill-rule:evenodd;fill:rgb(53.72549%,57.647059%,74.509804%);fill-opacity:1;" d="M 36 8.949219 C 36 4.007812 27.941406 0 18 0 C 8.058594 0 0 4.007812 0 8.949219 C 0 13.890625 8.058594 17.894531 18 17.894531 C 27.941406 17.894531 36 13.890625 36 8.949219 Z M 36 8.949219 "/>
<path style=" stroke:none;fill-rule:evenodd;fill:rgb(13.72549%,14.509804%,19.215686%);fill-opacity:1;" d="M 5.054688 14.246094 L 7.027344 4.710938 L 11.589844 4.710938 C 13.5625 4.828125 14.546875 5.769531 14.546875 7.417969 C 14.546875 10.242188 12.207031 11.890625 10.109375 11.773438 L 7.890625 11.773438 L 7.398438 14.246094 Z M 8.382812 10.007812 L 9 6.476562 L 10.601562 6.476562 C 11.464844 6.476562 12.082031 6.828125 12.082031 7.535156 C 11.957031 9.535156 10.972656 9.890625 9.863281 10.007812 Z M 14.089844 11.773438 L 16.0625 2.238281 L 18.40625 2.238281 L 17.910156 4.710938 L 20.128906 4.710938 C 22.101562 4.828125 22.84375 5.769531 22.597656 6.945312 L 21.734375 11.773438 L 19.269531 11.773438 L 20.128906 7.417969 C 20.253906 6.828125 20.253906 6.476562 19.390625 6.476562 L 17.542969 6.476562 L 16.433594 11.773438 Z M 21.574219 14.246094 L 23.546875 4.710938 L 28.109375 4.710938 C 30.082031 4.828125 31.070312 5.769531 31.070312 7.417969 C 31.070312 10.242188 28.726562 11.890625 26.628906 11.773438 L 24.410156 11.773438 L 23.917969 14.246094 Z M 24.902344 10.007812 L 25.519531 6.476562 L 27.125 6.476562 C 27.988281 6.476562 28.601562 6.828125 28.601562 7.535156 C 28.480469 9.535156 27.492188 9.890625 26.382812 10.007812 Z M 24.902344 10.007812 "/>
</g>
</svg>
